<svg width="64" height="64" viewBox="0 0 64 64" fill="none" transform="rotate(-45)" xmlns="http://www.w3.org/2000/svg"> 
<path d="M2 14C2 10.6863 4.68629 8 8 8H56C59.3137 8 62 10.6863 62 14V50C62 53.3137 59.3137 56 56 56H8C4.68629 56 2 53.3137 2 50V14Z" fill="#133A80"/>
<path d="M6 46C6 44.8954 6.89543 44 8 44H56C57.1046 44 58 44.8954 58 46V50C58 51.1046 57.1046 52 56 52H8C6.89543 52 6 51.1046 6 50V46Z" fill="#3B7DF7"/>
<path d="M6 13C6 12.4477 6.44772 12 7 12H57C57.5523 12 58 12.4477 58 13V47C58 47.5523 57.5523 48 57 48H7C6.44772 48 6 47.5523 6 47V13Z" fill="url(#paint0_linear_5_1199)"/>
<path d="M28.304 34.94L6.94 21.5875C6.35524 21.222 6 20.5811 6 19.8915V16H58V19.8915C58 20.5811 57.6448 21.222 57.06 21.5875L35.696 34.94C34.5877 35.6327 33.307 36 32 36C30.693 36 29.4123 35.6327 28.304 34.94Z" fill="#3B7DF7"/>
<path d="M28.304 30.94L6.94 17.5875C6.35524 17.222 6 16.5811 6 15.8915V14C6 12.8954 6.89543 12 8 12H56C57.1046 12 58 12.8954 58 14V15.8915C58 16.5811 57.6448 17.222 57.06 17.5875L35.696 30.94C34.5877 31.6327 33.307 32 32 32C30.693 32 29.4123 31.6327 28.304 30.94Z" fill="#E9F0FF"/>
<defs>
<linearGradient id="paint0_linear_5_1199" x1="32" y1="12" x2="32" y2="48" gradientUnits="userSpaceOnUse">
<stop stop-color="#C6DBFF"/>
<stop offset="1" stop-color="#73A5FF"/>
</linearGradient>
</defs>
</svg>
