<svg width="64" height="64" viewBox="0 0 64 64" transform="rotate(-45)" fill="none" xmlns="http://www.w3.org/2000/svg">
<path d="M51.9393 12.0606C49.8848 10.0061 47.5363 8.80206 45.2979 8.56139C43.1045 8.32556 40.9016 8.99711 38.9789 10.9189C38.9783 10.9195 38.9778 10.92 38.9772 10.9206L13.5673 36.4814C12.4228 37.6327 11.6319 39.0877 11.2882 40.6743L8.45246 53.7639C8.22147 54.8301 9.16981 55.7785 10.236 55.5475L23.3256 52.7118C24.9122 52.368 26.3672 51.5771 27.5186 50.4326L53.0793 25.0226C53.0798 25.0221 53.0803 25.0216 53.0808 25.0211C55.0027 23.0984 55.6743 20.8954 55.4385 18.702C55.1978 16.4636 53.9938 14.1151 51.9393 12.0606Z" fill="#D27C2C" stroke="black" stroke-width="3"/>
<path d="M50 29L36 15" stroke="black" stroke-width="3"/>
<mask id="path-3-inside-1_1_50" fill="white">
<path fill-rule="evenodd" clip-rule="evenodd" d="M13.6273 34.2931L12.5032 35.424C11.1569 36.7784 10.2266 38.49 9.82227 40.3565L6.98648 53.4463C6.5245 55.5788 8.42117 57.4755 10.5536 57.0135L23.6435 54.1777C25.5099 53.7734 27.2216 52.8431 28.576 51.4968L29.7069 50.3727L13.6273 34.2931Z"/>
</mask>
<path fill-rule="evenodd" clip-rule="evenodd" d="M13.6273 34.2931L12.5032 35.424C11.1569 36.7784 10.2266 38.49 9.82227 40.3565L6.98648 53.4463C6.5245 55.5788 8.42117 57.4755 10.5536 57.0135L23.6435 54.1777C25.5099 53.7734 27.2216 52.8431 28.576 51.4968L29.7069 50.3727L13.6273 34.2931Z" fill="#FFF4D9"/>
<path d="M13.6273 34.2931L11.4996 32.1782L13.6209 30.044L15.7487 32.1718L13.6273 34.2931ZM12.5032 35.424L10.3755 33.3091L10.3755 33.3091L12.5032 35.424ZM9.82227 40.3565L12.7543 40.9916V40.9916L9.82227 40.3565ZM6.98648 53.4463L4.05449 52.8112V52.8112L6.98648 53.4463ZM10.5536 57.0135L11.1888 59.9455L10.5536 57.0135ZM23.6435 54.1777L24.2787 57.1097L24.2787 57.1097L23.6435 54.1777ZM28.576 51.4968L30.6909 53.6245L30.6909 53.6245L28.576 51.4968ZM29.7069 50.3727L31.8282 48.2513L33.956 50.3791L31.8218 52.5004L29.7069 50.3727ZM15.755 36.408L14.6309 37.5389L10.3755 33.3091L11.4996 32.1782L15.755 36.408ZM14.6309 37.5389C13.6885 38.487 13.0373 39.6852 12.7543 40.9916L6.89029 39.7213C7.41593 37.2949 8.62533 35.0699 10.3755 33.3091L14.6309 37.5389ZM12.7543 40.9916L9.91846 54.0815L4.05449 52.8112L6.89029 39.7213L12.7543 40.9916ZM9.91846 54.0815V54.0815L11.1888 59.9455C6.92388 60.8695 3.13054 57.0761 4.05449 52.8112L9.91846 54.0815ZM9.91846 54.0815L23.0084 51.2457L24.2787 57.1097L11.1888 59.9455L9.91846 54.0815ZM23.0083 51.2457C24.3148 50.9627 25.513 50.3115 26.4611 49.3691L30.6909 53.6245C28.9301 55.3747 26.7051 56.5841 24.2787 57.1097L23.0083 51.2457ZM26.4611 49.3691L27.592 48.245L31.8218 52.5004L30.6909 53.6245L26.4611 49.3691ZM15.7487 32.1718L31.8282 48.2513L27.5856 52.494L11.506 36.4144L15.7487 32.1718Z" fill="black" mask="url(#path-3-inside-1_1_50)"/>
<path fill-rule="evenodd" clip-rule="evenodd" d="M9.02704 44.0271L6.98645 53.4464C6.52448 55.5788 8.42115 57.4755 10.5536 57.0135L19.9729 54.973L9.02704 44.0271Z" fill="black"/>
</svg>
